# xmcd
#
# Track frame offsets:
#	150
#	9792
#	20272
#	29941
#	40319
#	53105
#	64161
#	76669
#	86567
#	97277
#
# Disc length: 1463 seconds
#
# Revision: 0
# Processed by: cddbd v1.5.2PL0 Copyright (c) Steve Scherf et al.
# Submitted via: EasyCDDAExtractor 4.6.9.1
#
DISCID=7705b50a
DTITLE=Jan Howard - Bad Seed
DYEAR=1973
DGENRE=Country
TTITLE0=Son-Of-A Preacher Man
TTITLE1=I Get The Fever
TTITLE2=Your Good Girls Gonna Go Bad
TTITLE3=Count Your Blessings, Woman
TTITLE4=Bad Seed
TTITLE5=Ribbon Of Darkness
TTITLE6=Put It Off Until Tomorrow
TTITLE7=Until My Dreams Come True
TTITLE8=Happy State Of Mind
TTITLE9=The Tip Of My Fingers
EXTD=
EXTT0=
EXTT1=
EXTT2=
EXTT3=
EXTT4=
EXTT5=
EXTT6=
EXTT7=
EXTT8=
EXTT9=
PLAYORDER=
